<?xml version="1.0" encoding="utf-8"?>
<!-- Generator: Adobe Illustrator 18.1.1, SVG Export Plug-In . SVG Version: 6.00 Build 0)  -->
<svg x="0px" y="0px" viewBox="0 0 50 50" enable-background="new 0 0 50 50" xml:space="preserve">
		<path d="M38.2,39.7H11.8c-0.8,0-1.5-0.7-1.5-1.5V11.8c0-0.8,0.7-1.5,1.5-1.5h26.4c0.8,0,1.5,0.7,1.5,1.5v26.4
			C39.7,39,39,39.7,38.2,39.7z M13.3,36.7h23.4V13.3H13.3V36.7z"/>
		<path d="M24.3,31.3c-0.3,0-0.7-0.1-0.9-0.3l-6-4.9c-0.6-0.5-0.7-1.5-0.2-2.1c0.5-0.6,1.5-0.7,2.1-0.2l4.8,3.9
			l6.8-9.6c0.5-0.7,1.4-0.8,2.1-0.4c0.7,0.5,0.8,1.4,0.4,2.1l-7.8,10.9c-0.2,0.3-0.6,0.6-1,0.6C24.4,31.3,24.3,31.3,24.3,31.3z"/>
</svg>
