<?xml version="1.0" encoding="utf-8"?>
<!-- Generator: Adobe Illustrator 18.1.1, SVG Export Plug-In . SVG Version: 6.00 Build 0)  -->
<svg version="1.1" id="Layer_1" xmlns="http://www.w3.org/2000/svg" xmlns:xlink="http://www.w3.org/1999/xlink" x="0px" y="0px"
	 viewBox="0 0 50 50" enable-background="new 0 0 50 50" xml:space="preserve">
<path fill="#0A97CC" d="M46.8,19c-0.5-4.2-5.4-7.3-11.6-7.3c-4.4,0-8.2,1.6-10.2,4c-2-2.4-5.8-4-10.2-4c-6.2,0-11.2,3.1-11.6,7.3
	c0,0.1,0,0.2,0,0.3v17.2c0,1,0.8,1.8,1.8,1.8c0.6,0,1.1-0.3,1.5-0.8c0.9-1.3,4.1-2.7,8.5-2.7c4.4,0,7.6,1.4,8.5,2.7
	c0.3,0.5,0.9,0.8,1.5,0.8c0.1,0,0.2,0,0.3,0c0.1,0,0.2,0,0.3,0c0.6,0,1.1-0.3,1.5-0.8c0.9-1.3,4.1-2.7,8.5-2.7
	c4.4,0,7.6,1.4,8.5,2.7c0.3,0.5,0.9,0.8,1.5,0.8c0.4,0,0.9-0.2,1.2-0.5c0.4-0.3,0.6-0.8,0.6-1.3V19.3C46.9,19.2,46.8,19.1,46.8,19z
	 M14.8,31.8c-3.4,0-6.5,0.7-8.7,2V19.5c0,0,0-0.1,0-0.1c0.2-2.6,4.2-4.8,8.7-4.8s8.5,2.2,8.7,4.8c0,0,0,0.1,0,0.1v14.3
	C21.4,32.6,18.3,31.8,14.8,31.8z M43.9,33.8c-2.1-1.3-5.2-2-8.7-2c-3.4,0-6.5,0.7-8.7,2V19.5c0,0,0-0.1,0-0.1
	c0.2-2.6,4.2-4.8,8.7-4.8s8.5,2.2,8.7,4.8c0,0,0,0.1,0,0.1V33.8z"/>
</svg>
