<?xml version="1.0" encoding="utf-8"?>
<!-- Generator: Adobe Illustrator 18.1.1, SVG Export Plug-In . SVG Version: 6.00 Build 0)  -->
<svg  class="ico"x="0px" y="0px" viewBox="0 0 50 50" enable-background="new 0 0 50 50" xml:space="preserve">
<g>
	<path d="M47.1,27.7C47.1,27.7,47.1,27.7,47.1,27.7c0-0.1,0-0.2,0-0.3V12.5c0-0.8-0.7-1.5-1.5-1.5H4.4
		c-0.8,0-1.5,0.7-1.5,1.5v24.9c0,0.8,0.7,1.5,1.5,1.5h31.3c0,0,0,0,0,0c0.1,0,0.2,0,0.3,0c0,0,0.1,0,0.1,0c0.1,0,0.1,0,0.2,0
		c0,0,0.1,0,0.1-0.1c0.1,0,0.1,0,0.2-0.1c0.1-0.1,0.2-0.1,0.2-0.2l10-10c0.1-0.1,0.2-0.2,0.2-0.3c0,0,0-0.1,0-0.1
		C47,28,47.1,27.9,47.1,27.7z M5.9,14h38.3v11.9h-8.5c-0.8,0-1.5,0.7-1.5,1.5V36H5.9V14z M37.1,33.8v-4.9H42L37.1,33.8z"/>
	<path fill="#0A97CC" d="M10.9,21.1h15.7c0.8,0,1.5-0.7,1.5-1.5s-0.7-1.5-1.5-1.5H10.9c-0.8,0-1.5,0.7-1.5,1.5S10.1,21.1,10.9,21.1z
		"/>
	<path fill="#0A97CC" d="M26.6,23.5H10.9c-0.8,0-1.5,0.7-1.5,1.5s0.7,1.5,1.5,1.5h15.7c0.8,0,1.5-0.7,1.5-1.5S27.4,23.5,26.6,23.5z"
		/>
</g>
</svg>
